<?xml version="1.0" encoding="utf-8"?>
<!-- Generator: Adobe Illustrator 16.0.0, SVG Export Plug-In . SVG Version: 6.00 Build 0)  -->
<!DOCTYPE svg PUBLIC "-//W3C//DTD SVG 1.1//EN" "http://www.w3.org/Graphics/SVG/1.1/DTD/svg11.dtd">
<svg version="1.1" id="Layer_1" xmlns="http://www.w3.org/2000/svg" xmlns:xlink="http://www.w3.org/1999/xlink" x="0px" y="0px"
	 width="295.219px" height="149.645px" viewBox="0 0 295.219 149.645" enable-background="new 0 0 295.219 149.645"
	 xml:space="preserve">
<g>
	<polygon fill="none" points="71.319,138.67 71.32,138.67 132.177,106.746 71.319,74.822 	"/>
	<polygon fill="none" points="10.461,106.746 10.461,106.746 71.319,138.67 71.319,74.822 	"/>
	<polyline fill="none" points="71.319,74.822 10.461,42.899 10.461,106.746 	"/>
	<polygon fill="none" points="71.319,10.976 10.461,42.897 10.461,42.899 71.319,74.822 	"/>
	<polygon fill="#0099CC" points="132.177,106.746 71.32,138.67 71.319,138.67 71.319,149.645 142.638,112.233 	"/>
	<polygon fill="#CC3333" points="10.461,106.746 10.461,106.746 0,112.233 71.318,149.645 71.319,149.645 71.319,138.67 	"/>
	<polygon fill="#CCCB31" points="71.32,10.974 132.178,42.897 132.178,42.897 142.638,37.411 71.319,0.002 71.319,10.976 	"/>
	<polygon fill="#F26722" points="10.461,42.897 71.319,10.976 71.319,0.002 71.318,0 0,37.411 10.461,42.899 	"/>
	<polygon fill="#33669A" points="10.461,42.899 0,37.411 0,112.233 10.461,106.746 	"/>
</g>
<g>
	<polygon fill="#33669A" points="39.726,56.492 70.791,38.557 101.855,56.492 101.855,56.492 118.392,47.944 70.791,20.462 
		23.189,47.944 23.189,84.407 39.726,84.407 	"/>
	<polygon fill="#33669A" points="101.855,92.363 70.791,110.299 40.554,92.842 23.189,102.859 23.189,102.91 70.791,130.395 
		118.392,102.91 118.392,84.407 101.855,84.407 	"/>
</g>
<path fill="none" d="M14.179,144.229"/>
<line fill="#ED1C24" stroke="#33669A" stroke-width="15" stroke-miterlimit="10" x1="23.189" y1="79.568" x2="118.392" y2="79.568"/>
<g>
	<path fill="#33669A" d="M162.766,48.208c0,0-6.798-0.84-10.938-0.84c-5.624,0-8.466,1.98-8.466,6.96c0,5.04,2.842,6.06,9.27,7.62
		c7.663,1.86,11.495,3.96,11.495,11.339c0,8.34-4.079,12.72-12.854,12.72c-4.82,0-12.236-1.141-12.236-1.141l0.309-3.78
		c0,0,7.849,0.84,11.927,0.84c5.562,0,8.034-2.82,8.034-8.22c0-5.04-2.843-6.419-8.652-7.68c-7.91-1.8-12.174-4.2-12.174-11.219
		c0-7.98,4.635-11.52,13.101-11.52c4.882,0,11.433,1.26,11.433,1.26L162.766,48.208z"/>
	<path fill="#33669A" d="M193.604,55.409v29.999h-4.511l-0.062-4.5c0,0-3.77,5.101-8.961,5.101c-6.736,0-9.517-4.081-9.517-12.18
		V55.409h4.635v17.399c0,6.42,1.545,9.3,5.809,9.3c4.141,0,8.034-5.58,8.034-5.58V55.409H193.604z"/>
	<path fill="#33669A" d="M200.65,71.008c0-9.54,2.349-16.199,12.36-16.199c3.522,0,11.124,1.02,11.124,1.02v22.199
		c0,2.82,0.371,7.32,0.371,7.32l-4.636,0.18c0,0-0.309-2.76-0.309-5.16c0,0-3.337,5.64-9.023,5.64
		C203.184,86.008,200.65,80.847,200.65,71.008z M205.347,71.008c0,6.6,1.174,11.1,6.118,11.1c4.697,0,8.034-6.24,8.034-6.24V59.249
		c0,0-4.265-0.54-5.933-0.54C206.892,58.708,205.347,62.968,205.347,71.008z"/>
	<path fill="#33669A" d="M234.269,55.409l6.799,26.159h1.915l6.798-26.159h4.697l-8.22,29.999h-8.466l-8.22-29.999H234.269z"/>
	<path fill="#33669A" d="M259.854,43.769h4.758v5.34h-4.758V43.769z M259.915,55.409h4.635v29.999h-4.635V55.409z"/>
	<path fill="#33669A" d="M291.433,59.428c0,0-5.809-0.72-9.888-0.72c-2.843,0-5.624,1.2-5.624,4.56c0,3.18,1.978,4.02,6.488,4.86
		c6.242,1.32,10.197,2.22,10.197,8.459c0,7.32-4.326,9.42-11.186,9.42c-4.202,0-10.072-1.201-10.072-1.201l0.309-3.659
		c0,0,6.427,0.96,9.393,0.96c4.697,0,6.922-1.2,6.922-5.1c0-3.54-2.596-4.02-6.859-4.8c-5.933-1.2-9.826-2.64-9.826-8.58
		c0-6.54,5.067-8.819,10.073-8.819c5.13,0,10.259,1.02,10.259,1.02L291.433,59.428z"/>
</g>
<g>
	<path fill="#F26722" d="M138.928,92.391h10.3v1.38h-4.346v12.463h-1.566V93.771h-4.388V92.391z"/>
	<path fill="#F26722" d="M160.414,104.934l0.041,1.18c0,0-2.348,0.32-4.017,0.32c-3.069,0-4.079-1.74-4.079-5.141
		c0-3.801,1.689-5.262,4.306-5.262c2.74,0,4.14,1.4,4.14,4.682l-0.082,1.14h-6.798c0,2.14,0.68,3.261,2.698,3.261
		C158.168,105.113,160.414,104.934,160.414,104.934z M159.26,100.652c0-2.48-0.783-3.361-2.595-3.361
		c-1.751,0-2.74,0.941-2.761,3.361H159.26z"/>
	<path fill="#F26722" d="M173.577,96.331l-0.062,1.221c0,0-1.647-0.181-2.431-0.181c-2.369,0-3.007,1-3.007,3.682
		c0,2.96,0.474,4.041,3.028,4.041c0.783,0,2.431-0.181,2.431-0.181l0.062,1.24c0,0-1.916,0.28-2.863,0.28
		c-3.275,0-4.243-1.461-4.243-5.381c0-3.621,1.215-5.021,4.285-5.021C171.723,96.031,173.577,96.331,173.577,96.331z"/>
	<path fill="#F26722" d="M179.613,106.233V91.87h1.545v4.921c0,0,1.648-0.76,3.172-0.76c2.822,0,3.481,1.36,3.481,4.921v5.281
		h-1.545v-5.241c0-2.641-0.309-3.621-2.204-3.621c-1.462,0-2.904,0.601-2.904,0.601v8.262H179.613z"/>
	<path fill="#F26722" d="M194.383,106.233V96.231h1.524v0.7c0,0,1.669-0.9,3.193-0.9c2.843,0,3.481,1.36,3.481,4.921v5.281h-1.524
		v-5.241c0-2.641-0.309-3.621-2.225-3.621c-1.483,0-2.904,0.74-2.904,0.74v8.122H194.383z"/>
	<path fill="#F26722" d="M217.517,101.112c0,3.641-0.928,5.321-4.409,5.321c-3.461,0-4.409-1.681-4.409-5.321
		c0-3.44,1.154-5.081,4.409-5.081C216.383,96.031,217.517,97.672,217.517,101.112z M215.93,101.112c0-2.78-0.618-3.78-2.822-3.78
		c-2.184,0-2.822,1-2.822,3.78c0,2.841,0.391,4.021,2.822,4.021C215.559,105.133,215.93,103.953,215.93,101.112z"/>
	<path fill="#F26722" d="M223.861,91.87h1.545v14.363h-1.545V91.87z"/>
	<path fill="#F26722" d="M240.567,101.112c0,3.641-0.928,5.321-4.408,5.321c-3.461,0-4.408-1.681-4.408-5.321
		c0-3.44,1.153-5.081,4.408-5.081C239.435,96.031,240.567,97.672,240.567,101.112z M238.981,101.112c0-2.78-0.618-3.78-2.822-3.78
		c-2.184,0-2.822,1-2.822,3.78c0,2.841,0.391,4.021,2.822,4.021C238.61,105.133,238.981,103.953,238.981,101.112z"/>
	<path fill="#F26722" d="M246.335,107.914c0-1.16,0.557-1.701,1.628-2.48c-0.37-0.24-0.577-0.761-0.577-1.381
		c0-0.38,0.701-1.58,0.701-1.58c-0.865-0.381-1.627-1.18-1.627-3.021c0-2.461,1.564-3.421,3.852-3.421
		c1.029,0,2.143,0.26,2.143,0.26l3.049-0.08v1.281l-1.957-0.041c0.391,0.381,0.68,0.94,0.68,2.001c0,2.601-1.34,3.38-3.977,3.38
		c-0.205,0-0.782-0.039-1.009-0.08c0,0-0.371,0.881-0.371,1.141c0,0.801,0.165,0.92,2.493,0.92c2.925,0,3.975,0.561,3.975,2.941
		c0,2.26-1.668,3.181-4.572,3.181C247.51,110.935,246.335,110.234,246.335,107.914z M249.014,106.033
		c-0.865,0.62-1.153,0.98-1.153,1.761c0,1.38,0.598,1.88,2.925,1.88c2.06,0,2.987-0.54,2.987-1.859c0-1.521-0.66-1.682-2.534-1.682
		C250.517,106.133,249.014,106.033,249.014,106.033z M252.681,99.452c0-1.581-0.639-2.2-2.369-2.2c-1.607,0-2.307,0.619-2.307,2.2
		c0,1.58,0.699,2.181,2.307,2.181C252.042,101.633,252.681,101.032,252.681,99.452z"/>
	<path fill="#F26722" d="M261.085,92.23h1.545v1.74h-1.545V92.23z M261.085,96.231h1.545v10.002h-1.545V96.231z"/>
	<path fill="#F26722" d="M276.905,104.934l0.041,1.18c0,0-2.348,0.32-4.016,0.32c-3.07,0-4.08-1.74-4.08-5.141
		c0-3.801,1.689-5.262,4.307-5.262c2.738,0,4.14,1.4,4.14,4.682l-0.083,1.14h-6.797c0,2.14,0.68,3.261,2.698,3.261
		C274.66,105.113,276.905,104.934,276.905,104.934z M275.752,100.652c0-2.48-0.782-3.361-2.595-3.361
		c-1.752,0-2.74,0.941-2.762,3.361H275.752z"/>
	<path fill="#F26722" d="M290.255,97.691c0,0-2.287-0.32-3.605-0.32c-1.277,0-2.246,0.34-2.246,1.521c0,0.94,0.495,1.2,2.679,1.561
		c2.575,0.42,3.543,0.921,3.543,2.86c0,2.341-1.524,3.121-3.996,3.121c-1.318,0-3.626-0.381-3.626-0.381l0.082-1.3
		c0,0,2.35,0.341,3.399,0.341c1.689,0,2.596-0.361,2.596-1.721c0-1.041-0.536-1.301-2.78-1.641c-2.328-0.359-3.441-0.78-3.441-2.781
		c0-2.199,1.834-2.92,3.709-2.92c1.545,0,3.729,0.38,3.729,0.38L290.255,97.691z"/>
</g>
</svg>
