<svg version="1.1" id="Layer_1" xmlns="http://www.w3.org/2000/svg" xmlns:xlink="http://www.w3.org/1999/xlink" x="0px" y="0px"
	 width="309.041px" height="149.645px" viewBox="0 0 309.041 149.645" enable-background="new 0 0 309.041 149.645"
	 xml:space="preserve">
<g>
	<polygon fill="none" points="71.319,138.67 71.32,138.67 132.177,106.746 71.319,74.822 	"/>
	<polygon fill="none" points="10.461,106.746 10.461,106.746 71.319,138.67 71.319,74.822 	"/>
	<polyline fill="none" points="71.319,74.822 10.461,42.899 10.461,106.746 	"/>
	<polygon fill="none" points="71.319,10.976 10.461,42.897 10.461,42.899 71.319,74.822 	"/>
	<polygon fill="#0099CC" points="132.177,106.746 71.32,138.67 71.319,138.67 71.319,149.645 142.638,112.233 	"/>
	<polygon fill="#CC3333" points="10.461,106.746 10.461,106.746 0,112.233 71.318,149.645 71.319,149.645 71.319,138.67 	"/>
	<polygon fill="#CCCB31" points="71.32,10.974 132.178,42.897 132.178,42.897 142.638,37.411 71.319,0.002 71.319,10.976 	"/>
	<polygon fill="#F26722" points="10.461,42.897 71.319,10.976 71.319,0.002 71.318,0 0,37.411 10.461,42.899 	"/>
	<polygon fill="#33669A" points="10.461,42.899 0,37.411 0,112.233 10.461,106.746 	"/>
</g>
<g>
	<polygon fill="#FFCD33" points="39.726,55.492 70.791,37.557 101.855,55.492 101.855,55.492 118.392,46.944 70.791,19.462 
		23.189,46.944 23.189,80.407 39.726,80.407 	"/>
	<polygon fill="#FFCD33" points="101.855,91.363 70.791,109.298 40.554,91.842 23.189,101.859 23.189,101.91 70.791,129.394 
		118.392,101.91 118.392,81.407 101.855,81.407 	"/>
</g>
<path fill="none" d="M14.179,144.229"/>
<line fill="#ED1C24" stroke="#FFCD33" stroke-width="15" stroke-miterlimit="10" x1="23.189" y1="74.568" x2="118.392" y2="74.568"/>
<g>
	<path fill="#FFCD33" d="M163.761,52.048c0,0-8.713-0.96-12.298-0.96c-4.573,0-6.736,1.62-6.736,4.32c0,2.58,1.668,3.479,8.713,5.64
		c9.084,2.82,11.865,5.28,11.865,12.06c0,8.879-6.242,13.02-14.522,13.02c-5.747,0-14.028-1.86-14.028-1.86l0.865-6.419
		c0,0,8.281,1.08,12.669,1.08c4.573,0,6.55-2.1,6.55-5.279c0-2.52-1.483-3.66-7.54-5.34c-9.455-2.64-13.039-5.76-13.039-12.3
		c0-8.459,5.809-12.119,14.337-12.119c5.624,0,13.843,1.62,13.843,1.62L163.761,52.048z"/>
	<path fill="#FFCD33" d="M197.936,55.409v29.999h-8.219v-1.68c0,0-4.449,2.4-7.725,2.4c-9.022,0-10.876-4.86-10.876-15V55.409h8.281
		v15.839c0,5.34,0.248,7.68,4.326,7.68c3.09,0,5.933-1.08,5.933-1.08V55.409H197.936z"/>
	<path fill="#FFCD33" d="M229.268,77.248c0.124,1.8,0.371,2.52,2.04,2.82l-0.247,6.06c-4.141,0-6.242-0.42-8.837-2.1
		c0,0-4.449,2.1-9.084,2.1c-6.489,0-9.579-3.48-9.579-9.84c0-6.78,4.017-8.7,10.815-9.18l6.612-0.48v-1.86
		c0-2.58-1.174-3.24-3.646-3.24c-4.079,0-11.618,0.48-11.618,0.48l-0.247-5.58c0,0,6.612-1.74,12.545-1.74
		c8.034,0,11.247,3.06,11.247,10.08V77.248z M215.363,72.688c-2.163,0.18-3.461,1.2-3.461,3.359c0,2.1,0.804,3.54,3.028,3.54
		c2.657,0,6.056-0.96,6.056-0.96v-6.42L215.363,72.688z"/>
	<path fill="#FFCD33" d="M242.555,55.409l4.944,23.159h1.73l5.191-23.159h8.405l-7.416,29.999h-14.09l-7.416-29.999H242.555z"/>
	<path fill="#FFCD33" d="M267.583,43.409h8.281v8.16h-8.281V43.409z M267.583,55.409h8.281v29.999h-8.281V55.409z"/>
	<path fill="#FFCD33" d="M305.713,62.908c0,0-7.663-0.96-11.248-0.96c-3.584,0-4.326,0.78-4.326,2.4c0,1.38,1.174,1.68,6.859,2.7
		c7.169,1.26,9.703,3.3,9.703,9.36c0,7.02-4.697,9.72-12.421,9.72c-4.573,0-11.865-1.44-11.865-1.44l0.247-6.72
		c0,0,7.663,0.96,10.814,0.96c3.955,0,5.006-0.78,5.006-2.34c0-1.32-0.68-1.92-6.365-2.82c-6.674-1.08-10.197-2.64-10.197-9.24
		c0-6.959,5.438-9.779,11.927-9.779c4.449,0,11.989,1.5,11.989,1.5L305.713,62.908z"/>
</g>
<g>
	<path fill="#FFFFFF" d="M137.393,89.912h11.04v2.928h-3.974v13.393h-3.047V92.84h-4.019V89.912z"/>
	<path fill="#FFFFFF" d="M161.283,103.473l0.044,2.376c0,0-2.54,0.672-4.593,0.672c-3.334,0-4.747-1.8-4.747-6.121
		c0-4.272,1.656-6.457,4.879-6.457c3.246,0,4.813,1.8,4.813,5.424l-0.221,2.232h-6.491c0.022,1.44,0.64,2.088,2.23,2.088
		C159.009,103.689,161.283,103.473,161.283,103.473z M158.766,99.153c0-1.944-0.508-2.568-1.899-2.568
		c-1.413,0-1.898,0.744-1.921,2.568H158.766z"/>
	<path fill="#FFFFFF" d="M175.436,94.472l-0.088,2.544c0,0-1.745-0.192-2.583-0.192c-2.12,0-2.517,0.888-2.517,3.288
		c0,2.688,0.419,3.528,2.539,3.528c0.839,0,2.562-0.192,2.562-0.192l0.088,2.568c0,0-2.362,0.504-3.599,0.504
		c-3.29,0-4.593-1.896-4.593-6.409c0-4.248,1.369-6.168,4.659-6.168C173.184,93.944,175.436,94.472,175.436,94.472z"/>
	<path fill="#FFFFFF" d="M181.597,106.233V89.432h2.958v5.376c0,0,1.523-0.864,2.738-0.864c3.091,0,3.886,2.112,3.886,5.785v6.504
		h-2.959v-6.433c0-1.8-0.221-2.976-1.656-2.976c-0.972,0-2.009,0.384-2.009,0.384v9.025H181.597z"/>
	<path fill="#FFFFFF" d="M197.781,106.233V94.232h2.937v0.672c0,0,1.501-0.96,2.76-0.96c3.091,0,3.886,2.112,3.886,5.785v6.504
		h-2.959v-6.409c0-1.824-0.221-3-1.656-3c-1.038,0-2.009,0.432-2.009,0.432v8.977H197.781z"/>
	<path fill="#FFFFFF" d="M223.548,100.209c0,3.696-1.237,6.313-5.079,6.313s-5.078-2.616-5.078-6.313s1.236-6.265,5.078-6.265
		S223.548,96.513,223.548,100.209z M220.545,100.209c0-2.328-0.442-3.528-2.076-3.528s-2.075,1.2-2.075,3.528
		s0.441,3.576,2.075,3.576S220.545,102.537,220.545,100.209z"/>
	<path fill="#FFFFFF" d="M229.819,89.432h2.958v16.801h-2.958V89.432z"/>
	<path fill="#FFFFFF" d="M249.205,100.209c0,3.696-1.236,6.313-5.078,6.313s-5.078-2.616-5.078-6.313s1.236-6.265,5.078-6.265
		S249.205,96.513,249.205,100.209z M246.202,100.209c0-2.328-0.442-3.528-2.076-3.528s-2.075,1.2-2.075,3.528
		s0.441,3.576,2.075,3.576S246.202,102.537,246.202,100.209z"/>
	<path fill="#FFFFFF" d="M254.791,108.417c0-1.104,0.486-1.92,1.59-2.856c-0.486-0.36-0.817-1.08-0.817-1.824
		c0-0.6,0.861-1.92,0.861-1.92c-0.772-0.6-1.501-1.488-1.501-3.576c0-3.096,2.054-4.249,4.637-4.249c0.972,0,2.23,0.312,2.23,0.312
		l3.555-0.12v2.568l-1.656-0.144c0.199,0.336,0.486,0.936,0.486,1.632c0,3.36-1.634,4.224-4.659,4.224
		c-0.243,0-0.707-0.048-0.905-0.096c0,0-0.221,0.624-0.221,0.936c0,0.624,0.265,0.768,2.142,0.792
		c3.753,0.024,4.813,0.936,4.813,3.625c0,2.928-2.385,4.032-5.233,4.032C256.889,111.754,254.791,111.106,254.791,108.417z
		 M258.302,106.713c-0.375,0.408-0.596,0.768-0.596,1.368c0,0.696,0.773,1.032,2.429,1.032c1.435,0,2.23-0.336,2.23-1.2
		c0-0.912-0.441-1.008-2.075-1.032C259.67,106.881,258.302,106.713,258.302,106.713z M261.26,98.241
		c0-1.128-0.486-1.752-1.678-1.752c-1.192,0-1.7,0.624-1.7,1.752s0.508,1.776,1.7,1.776
		C260.774,100.017,261.26,99.369,261.26,98.241z"/>
	<path fill="#FFFFFF" d="M271.108,89.432h2.958v3.264h-2.958V89.432z M271.108,94.232h2.958v12.001h-2.958V94.232z"/>
	<path fill="#FFFFFF" d="M289.522,103.473l0.044,2.376c0,0-2.54,0.672-4.593,0.672c-3.334,0-4.747-1.8-4.747-6.121
		c0-4.272,1.656-6.457,4.879-6.457c3.246,0,4.813,1.8,4.813,5.424l-0.221,2.232h-6.491c0.022,1.44,0.64,2.088,2.23,2.088
		C287.249,103.689,289.522,103.473,289.522,103.473z M287.005,99.153c0-1.944-0.508-2.568-1.899-2.568
		c-1.413,0-1.898,0.744-1.921,2.568H287.005z"/>
	<path fill="#FFFFFF" d="M303.94,97.232c0,0-2.738-0.384-4.019-0.384c-1.28,0-1.545,0.312-1.545,0.96
		c0,0.552,0.419,0.672,2.451,1.08c2.562,0.504,3.467,1.32,3.467,3.745c0,2.808-1.678,3.888-4.438,3.888
		c-1.634,0-4.239-0.576-4.239-0.576l0.088-2.688c0,0,2.738,0.384,3.864,0.384c1.413,0,1.788-0.312,1.788-0.936
		c0-0.528-0.243-0.768-2.274-1.128c-2.385-0.432-3.643-1.056-3.643-3.696c0-2.785,1.943-3.913,4.261-3.913
		c1.59,0,4.284,0.6,4.284,0.6L303.94,97.232z"/>
</g>
</svg>